<?xml version="1.0" encoding="UTF-8" standalone="no"?>
<!-- Created with Inkscape (http://www.inkscape.org/) -->

<svg
   version="1.1"
   id="svg1"
   width="671.35345"
   height="675.17572"
   viewBox="0 0 671.35346 675.17572"
   sodipodi:docname="86b.svg"
   inkscape:version="1.3.2 (091e20ef0f, 2023-11-25)"
   xmlns:inkscape="http://www.inkscape.org/namespaces/inkscape"
   xmlns:sodipodi="http://sodipodi.sourceforge.net/DTD/sodipodi-0.dtd"
   xmlns="http://www.w3.org/2000/svg"
   xmlns:svg="http://www.w3.org/2000/svg">
  <defs
     id="defs1" />
  <sodipodi:namedview
     id="namedview1"
     pagecolor="#ffffff"
     bordercolor="#000000"
     borderopacity="0.25"
     inkscape:showpageshadow="2"
     inkscape:pageopacity="0.0"
     inkscape:pagecheckerboard="0"
     inkscape:deskcolor="#d1d1d1"
     showgrid="false"
     inkscape:zoom="1.0807195"
     inkscape:cx="324.32097"
     inkscape:cy="345.60308"
     inkscape:window-width="1920"
     inkscape:window-height="1011"
     inkscape:window-x="0"
     inkscape:window-y="0"
     inkscape:window-maximized="1"
     inkscape:current-layer="layer1" />
  <g
     inkscape:groupmode="layer"
     id="layer1"
     inkscape:label="Layer 1"
     transform="translate(-37.00752,-19.087699)">
    <path
       style="fill:#000000"
       d="m 346.00001,693.27603 c -15.94974,-1.75773 -25.35496,-4.55976 -47.33333,-14.10164 -8.26404,-3.58782 -9.41,-3.73588 -24.66667,-3.18701 -8.8,0.31659 -28.3,0.54458 -43.33334,0.50664 -22.95792,-0.0579 -29.5744,-0.54266 -41.33333,-3.02813 C 146.26024,664.36158 112.34342,645.01142 89.237671,616.35953 61.141557,581.51941 45.36143,543.66748 38.505023,494.66668 36.478145,480.18116 36.517515,430.22286 38.570167,412.00001 48.287323,325.73396 91.800408,251.42887 158,208.05573 c 23.10777,-15.13992 54.70386,-27.71954 82.66667,-32.91279 19.17833,-3.5618 45.68535,-3.2984 60.29801,0.59917 6.03057,1.60851 11.21585,2.92456 11.52284,2.92456 0.57717,0 2.56113,-23.25579 2.7868,-32.66667 0.22513,-9.38824 -1.70188,-22.42208 -4.6017,-31.1248 -2.85985,-8.58275 -18.10689,-35.377681 -27.0526,-47.541865 -9.75467,-13.264178 -12.33223,-16.699104 -14.95335,-19.927206 -1.46666,-1.806311 -4.16666,-5.166035 -6,-7.466052 -1.83333,-2.300018 -4.74145,-5.721075 -6.46248,-7.60235 -3.74265,-4.091117 -2.73718,-4.974191 7.12915,-6.261328 3.66667,-0.478345 13.16268,-2.030611 21.10225,-3.449481 27.49383,-4.913384 25.61627,-5.015477 29.8608,1.623692 2.03699,3.186205 5.24989,7.883265 7.13978,10.437912 1.88989,2.554647 6.23527,8.544813 9.65638,13.311479 3.42112,4.766667 7.83994,10.916667 9.81961,13.666667 l 3.59939,5.000001 16.07756,-0.05807 c 8.84266,-0.03194 18.77757,-0.672232 22.07757,-1.422878 3.3,-0.750646 11.1,-1.80756 17.33333,-2.348699 6.23333,-0.541138 13.13333,-1.945341 15.33334,-3.120451 9.1104,-4.866239 21.75033,-9.083311 41.8035,-13.946939 12.44155,-3.017534 17.24575,-3.463351 38.86316,-3.606402 15.5096,-0.102634 26.64658,0.420017 30,1.407879 2.93334,0.864109 9.53334,2.620598 14.66667,3.903307 12.95401,3.236928 30.97948,12.545087 37.70686,19.471415 7.00562,7.212804 21.26297,24.81817 32.707,40.387509 4.85125,6.6 9.72231,13.02958 10.8246,14.28797 1.10228,1.25838 3.54196,4.55838 5.42149,7.33333 3.86851,5.71148 6.05574,8.70136 17.34005,23.70334 4.4,5.8496 8.90001,11.62646 10.00001,12.83748 1.1,1.21101 4.4,5.10214 7.33333,8.64694 11.58727,14.00273 29.74653,30.98505 42.66667,39.90136 2.93333,2.02432 4.43333,3.33109 3.33333,2.90394 -1.1,-0.42715 -8.90476,-3.46527 -17.34391,-6.75137 -26.76981,-10.42385 -52.94567,-15.83999 -71.72656,-14.84121 -6.10251,0.32453 -11.57839,0.88852 -12.16864,1.25332 -3.13756,1.93912 -29.88099,5.01693 -46.76089,5.38156 -55.38083,1.19629 -90.5295,-15.55948 -121.68137,-58.00687 -3.49141,-4.75739 -7.52332,-10.14979 -8.9598,-11.98313 -1.43648,-1.83333 -9.6704,-15.1936 -18.29759,-29.68948 C 399.3561,82.642866 394.86257,76.152732 393.3544,76.736043 c -8.61773,3.333068 -29.53114,4.265061 -39.4817,1.759478 -3.28616,-0.827464 -6.33262,-1.146703 -6.7699,-0.709419 -0.71871,0.718708 0.5159,4.871578 3.63107,12.213901 2.70103,6.366225 6.57999,23.548737 7.6755,33.999997 2.01225,19.19702 1.14488,32.52112 -3.24282,49.81417 -1.09046,4.29779 -1.7229,8.07392 -1.40543,8.39139 0.31747,0.31747 11.10164,-0.1509 23.9648,-1.04084 37.1992,-2.57361 76.25447,1.09881 103.31935,9.71527 10.36052,3.2984 14.4906,5.53422 25.33334,13.71418 53.03286,40.00896 87.59943,101.99182 98.52039,176.66133 2.70785,18.5143 3.05534,63.05417 0.62475,80.07785 -9.43532,66.08417 -33.7491,117.72815 -76.18924,161.8307 -30.85068,32.05912 -61.01457,50.63718 -99.6117,61.35122 -30.79834,8.54921 -58.93059,11.49297 -83.7228,8.76076 z"
       id="path1" />
    <path
       id="path2"
       style="fill:#008000"
       d="M 264.80439 189.89825 C 251.65638 190.0453 237.75493 191.10976 229.08955 193.02325 C 184.78057 202.80756 150.22793 223.763 121.99971 257.97051 C 97.968966 287.09145 78.353325 320.84055 68.896192 349.33379 C 60.389717 374.96283 55.690914 411.54352 55.622754 452.66582 C 55.556274 492.77659 60.156193 524.8689 70.048536 553.28887 C 89.293206 608.5774 123.2594 640.70002 178.06221 655.43731 C 196.57321 660.41518 223.91787 661.25947 249.33369 657.63848 C 275.17403 653.95701 295.423 656.6945 310.66572 665.9295 C 325.39917 674.85595 340.88055 678.41685 365.57002 678.56036 C 375.60027 678.61866 388.42372 678.02483 394.06611 677.24004 C 419.43337 673.71179 454.55447 658.09772 483.03682 637.68731 C 495.93993 628.44095 520.06679 605.63871 530.64814 592.68926 C 559.89549 556.89649 578.98406 513.92593 587.54463 464.60918 C 590.85844 445.51864 590.859 400.58466 587.54658 380.82989 C 582.35806 349.8862 573.16044 323.05657 558.14424 295.06621 C 544.53373 269.69611 537.33985 260.29624 516.56025 240.72637 C 492.37188 217.94615 489.89679 216.66582 469.99971 216.66582 C 450.54827 216.66582 447.38664 218.2034 427.10322 237.51348 C 402.06688 261.34842 396.75066 263.35369 352.66572 265.60723 C 317.06587 267.42702 297.11959 265.99601 264.32393 259.26934 C 237.70236 253.80904 234.00005 253.69159 221.60322 257.90801 C 195.94767 266.63403 175.38305 282.02012 163.33369 301.50176 C 161.86702 303.87309 159.91638 306.05532 158.99971 306.35137 C 153.0225 308.28178 163.74192 278.87574 173.56025 266.40801 C 182.68922 254.81569 202.61313 245.59116 231.86104 239.41582 C 252.35596 235.08859 255.46826 235.1319 274.2165 239.99981 C 282.68959 242.19981 291.91435 243.99981 294.7165 243.99981 C 300.5366 243.99981 299.72581 246.28288 305.34736 214.02911 C 308.56798 195.55075 308.87589 196.26907 295.99971 192.2752 C 290.34694 190.52185 277.95242 189.75119 264.80439 189.89825 z M 416.06611 196.22246 C 400.37917 196.17193 374.2477 197.57354 356.14619 199.78692 L 348.95869 200.66582 L 347.12666 207.33379 C 345.38144 213.68304 340.07629 242.81782 340.0251 246.33379 C 339.9931 248.53106 344.41545 248.43694 356.029 245.99395 C 381.79834 240.57319 407.72264 228.69331 418.74385 217.25371 C 427.53168 208.13228 432.248 199.15022 429.24775 197.25176 C 428.16795 196.56849 423.19654 196.24544 416.06611 196.22246 z M 520.66572 272.11309 L 523.43916 275.05645 C 524.96374 276.67553 528.67755 283.42581 531.69307 290.0584 C 536.56258 300.76885 537.04334 302.70823 535.99189 307.39239 C 535.274 310.59065 533.60022 313.40955 531.73799 314.5545 C 530.04901 315.59292 522.65301 322.4936 515.30244 329.88848 L 501.93721 343.33379 L 506.27119 335.33379 C 514.49414 320.15332 519.76156 300.32908 520.3376 282.39043 L 520.66572 272.11309 z M 545.6501 320.85332 L 547.44111 324.09356 C 550.13055 328.95462 556.96508 350.07749 559.27314 360.66582 C 564.49745 384.63239 570.66398 420.57167 570.64619 426.94121 C 570.59449 445.48075 563.1678 461.92856 547.4001 478.41973 C 537.06078 489.23345 514.65326 506.85284 500.07783 515.63067 C 491.78288 520.62617 490.02107 521.03182 491.904 517.51348 C 493.32337 514.86137 506.59363 499.58454 529.12471 474.66582 C 544.57576 457.5774 553.18835 446.78677 556.47236 440.4002 C 558.96791 435.547 559.368 428.59179 557.22822 427.26934 C 555.72489 426.34023 540.00544 441.77082 525.58564 458.32989 C 520.95737 463.6448 515.9698 468.63505 514.50361 469.41973 C 511.91092 470.8073 511.89628 470.73297 513.97627 466.71075 C 515.15252 464.43613 521.18004 454.79357 527.36885 445.28106 C 540.37758 425.28596 544.70035 417.33379 542.56611 417.33379 C 541.74815 417.33379 534.98767 423.59612 527.54072 431.25176 C 511.61689 447.62188 481.78347 475.58678 478.07979 477.61504 C 475.18571 479.19993 490.7399 458.52344 499.20479 449.53301 C 502.20864 446.34265 509.16574 440.27604 514.66572 436.05254 C 533.0207 421.95759 539.15908 413.4142 542.75752 396.95489 C 546.20903 381.16767 540.34837 384.02029 518.64424 408.69121 C 511.23733 417.11062 504.89881 423.99981 504.5583 423.99981 C 504.2178 423.99981 508.36462 418.75046 513.77314 412.33379 C 532.96211 389.56813 545.53785 371.33245 547.43525 363.52325 C 548.27174 360.08052 548.1188 359.84662 545.84736 361.10137 C 544.46473 361.86514 536.92589 368.44606 529.09541 375.72442 C 513.23522 390.46632 503.97709 398.12287 504.04268 396.44512 C 504.06658 395.8335 510.23848 387.98104 517.75752 378.9959 C 539.99229 352.42569 540.91699 348.22578 521.33369 362.7459 C 512.41604 369.35795 510.61143 370.26627 511.4001 367.7459 C 511.93017 366.05197 516.37719 360.16582 521.28291 354.66582 C 531.67948 343.00988 540.06532 331.89227 543.33564 325.42754 L 545.6501 320.85332 z M 503.7458 425.33379 C 504.11246 425.33379 503.32703 426.53315 501.99971 427.99981 C 500.6724 429.46648 499.28629 430.66582 498.91963 430.66582 C 498.55296 430.66582 499.33841 429.46648 500.66572 427.99981 C 501.99304 426.53315 503.37913 425.33379 503.7458 425.33379 z M 72.780957 465.29473 C 74.221814 465.60856 77.787217 470.7381 90.245801 489.03301 L 98.665723 501.4002 L 98.665723 512.76543 C 98.665723 520.55149 99.335252 525.42534 100.78877 528.23614 C 102.09608 530.76419 103.2478 537.73618 103.78877 546.39629 C 104.32582 554.99352 105.2556 560.64605 106.1833 560.95293 C 107.85427 561.5057 114.87811 545.65332 117.39619 535.64434 C 118.27567 532.14854 119.46414 528.99753 120.03877 528.64239 C 120.61339 528.28725 121.4905 533.84692 121.98799 540.99786 C 123.84405 567.67703 127.43117 571.09451 137.17744 555.47051 L 141.24971 548.94121 L 142.62471 552.5584 C 143.38083 554.54712 143.99971 559.9257 143.99971 564.51153 C 143.99971 582.19283 150.0157 592.31447 167.56416 604.15606 C 177.24982 610.69186 181.74542 616.23141 179.23018 618.53106 C 175.90963 621.56697 170.81227 621.19299 163.17549 617.35332 C 158.86224 615.18471 145.13237 605.533 132.66572 595.90606 C 120.19909 586.27912 107.00035 576.46043 103.33369 574.08575 C 86.082373 562.913 76.527266 543.767 72.017286 511.33379 C 70.534187 500.66819 70.38299 469.85744 71.796582 466.27715 C 72.055636 465.62103 72.300673 465.19012 72.780957 465.29473 z M 426.79072 545.06426 C 428.36897 545.19669 429.29321 549.29187 429.31221 557.66582 C 429.32341 562.61582 429.76066 566.66582 430.28291 566.66582 C 430.80515 566.66582 433.80451 564.14247 436.94893 561.05645 C 443.85855 554.27517 443.83 554.11279 439.93135 578.09942 C 438.42738 587.35257 437.37869 597.71596 437.59932 601.12871 L 437.99971 607.33379 L 445.87471 592.32403 C 459.61997 566.12505 458.95536 571.63489 444.11104 606.95684 C 437.57882 622.50015 439.16011 623.46352 449.9001 610.48809 C 462.16618 595.66891 476.74888 580.65546 483.35908 576.03887 C 489.51224 571.74151 497.55729 569.15774 500.029 570.68536 C 503.04077 572.54671 500.48418 582.65864 493.39619 596.91778 L 486.6208 610.54473 L 471.64424 621.77129 C 446.20758 640.83579 433.97236 647.53637 407.97627 656.64043 C 395.55958 660.98887 391.39621 661.74421 370.66572 663.40606 C 341.65913 665.73137 342.28186 665.72414 343.48213 663.66582 C 350.26175 652.03956 375.95284 633.98088 384.97432 634.49981 C 397.57316 635.22451 416.20794 614.92292 414.06221 602.81036 C 411.82521 590.18252 411.89419 586.85097 414.61689 575.98223 C 419.7146 555.63287 424.16033 544.84354 426.79072 545.06426 z " />
    <path
       style="fill:#803300"
       d="m 325.4072,251.96048 c 4.33212,-2.31848 6.27228,-8.02719 9.15885,-26.94898 1.5264,-10.00571 3.42631,-19.87655 4.22202,-21.93518 1.71832,-4.44559 7.17797,-22.66613 10.71012,-35.74298 4.38627,-16.23903 3.07638,-42.75478 -3.29804,-66.76104 -4.96783,-18.70903 -17.55513,-45.183322 -27.21448,-57.238965 -9.09481,-11.351052 -12.76133,-15.217332 -13.81408,-14.566697 -0.63886,0.394834 -2.21381,0.947028 -3.4999,1.227098 -1.28609,0.280071 -5.63835,1.772559 -9.67168,3.316642 -4.03334,1.544082 -8.38334,3.150896 -9.66667,3.570698 -1.28333,0.419801 -2.33333,1.306161 -2.33333,1.969687 0,1.433004 6.02582,10.968972 10.2074,16.153389 5.63587,6.987488 20.41135,32.647238 25.21992,43.798039 8.676,20.119169 11.81373,44.292949 8.60232,66.274309 -0.71704,4.90793 -2.56306,18.22351 -4.10228,29.59017 -1.53921,11.36667 -4.01038,26.36667 -5.49149,33.33334 -4.34364,20.4312 -4.29141,19.47779 -1.2345,22.5347 3.02419,3.02419 8.10926,3.61818 12.20582,1.42577 z"
       id="path3" />
    <path
       style="fill:#008080"
       d="m 656.00002,188.45048 c 0,-2.25048 -10.22872,-17.80071 -17.99864,-27.36248 -1.00352,-1.23494 -2.89505,-3.93494 -4.20342,-6 -1.30836,-2.06506 -3.42238,-4.95466 -4.69782,-6.42133 C 627.8247,147.2 621.2054,139.10908 614.39059,130.68683 597.07586,109.28802 582.63977,93.720493 573.84394,86.962303 556.23564,73.433138 535.81186,64.757876 508.66668,59.277434 501.43771,57.81795 471.55994,57.546746 460.00001,58.83568 c -6.23333,0.695018 -15.53333,2.45869 -20.66666,3.919272 -5.13334,1.460581 -10.00284,2.811595 -10.82112,3.002254 -0.81828,0.190658 -2.87069,1.264871 -4.56092,2.387139 -4.33285,2.876905 -2.23972,5.18899 4.69758,5.18899 31.70606,0 95.72306,21.273437 112.65218,37.435355 3.28225,3.1335 5.30715,5.91747 4.49977,6.18659 -0.80737,0.26913 -7.39285,-1.86842 -14.63439,-4.75011 -16.48709,-6.56085 -45.63577,-15.577887 -56.74154,-17.552785 -15.43911,-2.74548 -47.34905,-9.245726 -49.56846,-10.09739 -3.97962,-1.527127 -3.07682,0.120112 7.14356,13.034046 1.83334,2.316503 5.13334,7.015289 7.33334,10.441749 25.69506,40.01956 38.37731,54.20178 55.8666,62.47414 11.99195,5.67213 19.57398,7.7323 37.73038,10.25196 3.07834,0.4272 25.57834,0.95348 50,1.16951 43.80995,0.38754 56.96108,1.55658 68.1369,6.05692 3.66377,1.47534 4.93279,1.59553 4.93279,0.46716 z"
       id="path4" />
  </g>
</svg>
