<svg xmlns="http://www.w3.org/2000/svg" viewBox="0 0 24 24" fill="none" stroke="currentColor" stroke-width="2" stroke-linecap="round" stroke-linejoin="round" class="feather feather-arrow-right-circle"><path d="M12 .94A11.06 11.06 0 0 0 .94 12 11.06 11.06 0 0 0 12 23.06 11.06 11.06 0 0 0 23.06 12 11.06 11.06 0 0 0 12 .94zm-.01 5.519a1.106 1.106 0 0 1 .792.335l4.325 4.325a1.106 1.106 0 0 1 .006.004 1.106 1.106 0 0 1-.004 1.756l-4.327 4.327a1.106 1.106 0 1 1-1.564-1.564l2.536-2.536H7.576a1.106 1.106 0 1 1 0-2.212h6.178l-2.536-2.536a1.106 1.106 0 0 1 .771-1.9z" fill="#f1f1f1" stroke="none"/></svg>