<?xml version="1.0" encoding="UTF-8" standalone="no"?>
<svg
   xmlns:dc="http://purl.org/dc/elements/1.1/"
   xmlns:cc="http://creativecommons.org/ns#"
   xmlns:rdf="http://www.w3.org/1999/02/22-rdf-syntax-ns#"
   xmlns:svg="http://www.w3.org/2000/svg"
   xmlns="http://www.w3.org/2000/svg"
   xmlns:sodipodi="http://sodipodi.sourceforge.net/DTD/sodipodi-0.dtd"
   xmlns:inkscape="http://www.inkscape.org/namespaces/inkscape"
   version="1.1"
   viewBox="-10 0 1000 1000"
   id="svg6"
   sodipodi:docname="user.svg"
   inkscape:version="0.92.4 5da689c313, 2019-01-14"
   width="1000"
   height="1000">
  <metadata
     id="metadata12">
    <rdf:RDF>
      <cc:Work
         rdf:about="">
        <dc:format>image/svg+xml</dc:format>
        <dc:type
           rdf:resource="http://purl.org/dc/dcmitype/StillImage" />
        <dc:title></dc:title>
      </cc:Work>
    </rdf:RDF>
  </metadata>
  <defs
     id="defs10" />
  <sodipodi:namedview
     pagecolor="#ffffff"
     bordercolor="#666666"
     borderopacity="1"
     objecttolerance="10"
     gridtolerance="10"
     guidetolerance="10"
     inkscape:pageopacity="0"
     inkscape:pageshadow="2"
     inkscape:window-width="1366"
     inkscape:window-height="697"
     id="namedview8"
     showgrid="false"
     inkscape:zoom="0.32593203"
     inkscape:cx="380.97135"
     inkscape:cy="597.14755"
     inkscape:window-x="0"
     inkscape:window-y="0"
     inkscape:window-maximized="1"
     inkscape:current-layer="svg6" />
  <g
     transform="matrix(0.37305343,0,0,-0.37305343,107.28469,897.61656)"
     id="g4"
     style="fill:#efefef;fill-opacity:1;stroke:none;stroke-width:2.68058109;stroke-opacity:1">
    <path
       d="M 1330,845 Q 1466,798 1575.5,713.5 1685,629 1761.5,518 1838,407 1879,275 1920,143 1920,0 h -128 q 0,164 -58.5,304.5 Q 1675,445 1572,548 1469,651 1328.5,709.5 1188,768 1024,768 917,768 818,741 719,714 633.5,664.5 548,615 478.5,545.5 409,476 359.5,390.5 310,305 283,206 256,107 256,0 H 128 q 0,144 42,275.5 Q 212,407 289,517 366,627 475.5,711 585,795 720,844 q -78,42 -140,102 -62,60 -105.5,133.5 -43.5,73.5 -67,157 Q 384,1320 384,1408 q 0,133 50,249.5 50,116.5 137,203.5 87,87 203.5,137 116.5,50 249.5,50 133,0 249.5,-50 116.5,-50 203.5,-137 87,-87 137,-203.5 50,-116.5 50,-249.5 0,-88 -23.5,-171 -23.5,-83 -67,-156 -43.5,-73 -105,-133.5 Q 1407,887 1330,845 Z m -818,563 q 0,-106 40.5,-199 40.5,-93 110,-162.5 Q 732,977 825,936.5 918,896 1024,896 q 106,0 199,40.5 93,40.5 162.5,110 69.5,69.5 110,162.5 40.5,93 40.5,199 0,106 -40.5,199 -40.5,93 -110,162.5 -69.5,69.5 -162.5,110 -93,40.5 -199,40.5 -106,0 -199,-40.5 Q 732,1839 662.5,1769.5 593,1700 552.5,1607 512,1514 512,1408 Z"
       id="path2"
       inkscape:connector-curvature="0"
       style="fill:#efefef;fill-opacity:1;stroke:none;stroke-width:2.68058109;stroke-opacity:1" />
  </g>
</svg>
